<svg width="1280" height="720" viewBox="0 0 1280 720" fill="none" xmlns="http://www.w3.org/2000/svg">
  <defs>
    <linearGradient id="bg-home" x1="120" y1="40" x2="1120" y2="680" gradientUnits="userSpaceOnUse">
      <stop stop-color="#0E1626"/>
      <stop offset="0.58" stop-color="#16243D"/>
      <stop offset="1" stop-color="#FFC93A"/>
    </linearGradient>
    <linearGradient id="card-home" x1="270" y1="120" x2="940" y2="600" gradientUnits="userSpaceOnUse">
      <stop stop-color="#FFFFFF"/>
      <stop offset="1" stop-color="#EEF3FB"/>
    </linearGradient>
  </defs>
  <rect width="1280" height="720" rx="36" fill="url(#bg-home)"/>
  <circle cx="1060" cy="128" r="120" fill="#FFD95E" fill-opacity="0.18"/>
  <circle cx="184" cy="600" r="160" fill="#62B7FF" fill-opacity="0.12"/>
  <rect x="152" y="92" width="760" height="500" rx="28" fill="url(#card-home)"/>
  <rect x="152" y="92" width="760" height="72" rx="28" fill="#0F1727"/>
  <circle cx="204" cy="128" r="10" fill="#FF6B6B"/>
  <circle cx="236" cy="128" r="10" fill="#FFD55C"/>
  <circle cx="268" cy="128" r="10" fill="#51D17A"/>
  <rect x="202" y="214" width="306" height="34" rx="10" fill="#1B2740"/>
  <rect x="202" y="270" width="452" height="16" rx="8" fill="#B3BECD"/>
  <rect x="202" y="300" width="402" height="16" rx="8" fill="#D2DAE7"/>
  <rect x="202" y="338" width="176" height="58" rx="16" fill="#FFD23F"/>
  <text x="238" y="374" fill="#141820" font-family="Arial, sans-serif" font-size="24" font-weight="700">Primary CTA</text>
  <rect x="202" y="434" width="208" height="104" rx="18" fill="#F8FBFF" stroke="#E2E9F2" stroke-width="4"/>
  <rect x="432" y="434" width="208" height="104" rx="18" fill="#F8FBFF" stroke="#E2E9F2" stroke-width="4"/>
  <rect x="662" y="214" width="200" height="220" rx="22" fill="#0F1727"/>
  <rect x="698" y="256" width="128" height="14" rx="7" fill="#7FD0FF"/>
  <rect x="698" y="288" width="104" height="14" rx="7" fill="#FFD55C"/>
  <rect x="698" y="338" width="128" height="54" rx="16" fill="#172544"/>
  <text x="706" y="372" fill="#F5F8FF" font-family="Arial, sans-serif" font-size="22" font-weight="700">Proof</text>
  <rect x="944" y="132" width="192" height="168" rx="22" fill="#FFFFFF" fill-opacity="0.92"/>
  <rect x="980" y="172" width="116" height="14" rx="7" fill="#1B2740"/>
  <rect x="980" y="206" width="84" height="14" rx="7" fill="#A2AFC1"/>
  <rect x="980" y="236" width="128" height="32" rx="12" fill="#FFD23F"/>
  <rect x="980" y="336" width="210" height="220" rx="22" fill="#FDF2C3"/>
  <path d="M1022 490L1074 438L1128 468L1160 410" stroke="#172544" stroke-width="12" stroke-linecap="round" stroke-linejoin="round"/>
  <circle cx="1022" cy="490" r="12" fill="#172544"/>
  <circle cx="1074" cy="438" r="12" fill="#172544"/>
  <circle cx="1128" cy="468" r="12" fill="#172544"/>
  <circle cx="1160" cy="410" r="12" fill="#172544"/>
  <text x="204" y="644" fill="#F6F8FD" font-family="Arial, sans-serif" font-size="52" font-weight="700">Homepage Blueprint</text>
  <text x="206" y="680" fill="#DDE6F3" font-family="Arial, sans-serif" font-size="24">Clear offer, visible proof, and a simple path to action.</text>
</svg>
