<svg width="1280" height="720" viewBox="0 0 1280 720" fill="none" xmlns="http://www.w3.org/2000/svg">
  <defs>
    <linearGradient id="bg-traffic" x1="96" y1="48" x2="1168" y2="680" gradientUnits="userSpaceOnUse">
      <stop stop-color="#0B1424"/>
      <stop offset="0.56" stop-color="#16304A"/>
      <stop offset="1" stop-color="#F0C64D"/>
    </linearGradient>
    <linearGradient id="panel-traffic" x1="170" y1="124" x2="790" y2="576" gradientUnits="userSpaceOnUse">
      <stop stop-color="#FFFFFF"/>
      <stop offset="1" stop-color="#EDF4FB"/>
    </linearGradient>
    <linearGradient id="flow-traffic" x1="856" y1="178" x2="1128" y2="520" gradientUnits="userSpaceOnUse">
      <stop stop-color="#FFF5CF"/>
      <stop offset="1" stop-color="#FFE082"/>
    </linearGradient>
  </defs>
  <rect width="1280" height="720" rx="36" fill="url(#bg-traffic)"/>
  <circle cx="1104" cy="122" r="120" fill="#FFD95E" fill-opacity="0.16"/>
  <circle cx="180" cy="580" r="156" fill="#63C7FF" fill-opacity="0.12"/>
  <circle cx="1012" cy="552" r="132" fill="#1AD1A5" fill-opacity="0.12"/>

  <rect x="156" y="96" width="628" height="468" rx="28" fill="url(#panel-traffic)"/>
  <rect x="156" y="96" width="628" height="72" rx="28" fill="#10192B"/>
  <circle cx="208" cy="132" r="10" fill="#FF6B6B"/>
  <circle cx="240" cy="132" r="10" fill="#FFD55C"/>
  <circle cx="272" cy="132" r="10" fill="#51D17A"/>

  <rect x="212" y="208" width="240" height="128" rx="22" fill="#F7FAFF" stroke="#E0E9F3" stroke-width="4"/>
  <rect x="238" y="238" width="112" height="16" rx="8" fill="#16253F"/>
  <rect x="238" y="270" width="86" height="16" rx="8" fill="#FFD23F"/>
  <rect x="238" y="300" width="150" height="14" rx="7" fill="#BAC6D7"/>
  <text x="238" y="230" fill="#53657B" font-family="Arial, sans-serif" font-size="18" font-weight="700">Traffic Source A</text>

  <rect x="212" y="362" width="240" height="128" rx="22" fill="#F7FAFF" stroke="#E0E9F3" stroke-width="4"/>
  <rect x="238" y="392" width="112" height="16" rx="8" fill="#16253F"/>
  <rect x="238" y="424" width="86" height="16" rx="8" fill="#7CDDC2"/>
  <rect x="238" y="454" width="150" height="14" rx="7" fill="#BAC6D7"/>
  <text x="238" y="384" fill="#53657B" font-family="Arial, sans-serif" font-size="18" font-weight="700">Traffic Source B</text>

  <path d="M470 274H548C564 274 578 286 578 302V304" stroke="#76A7FF" stroke-width="10" stroke-linecap="round"/>
  <path d="M470 428H548C564 428 578 416 578 400V398" stroke="#7CDDC2" stroke-width="10" stroke-linecap="round"/>

  <rect x="514" y="206" width="214" height="284" rx="26" fill="#16243D"/>
  <rect x="548" y="242" width="146" height="16" rx="8" fill="#F1F5FB"/>
  <rect x="548" y="276" width="102" height="14" rx="7" fill="#A2AFC1"/>
  <rect x="548" y="322" width="146" height="44" rx="14" fill="#FFD23F"/>
  <text x="570" y="351" fill="#10192B" font-family="Arial, sans-serif" font-size="22" font-weight="700">Fix Friction</text>
  <rect x="548" y="390" width="146" height="18" rx="9" fill="#2A3C5D"/>
  <rect x="548" y="424" width="126" height="18" rx="9" fill="#2A3C5D"/>
  <rect x="548" y="458" width="166" height="18" rx="9" fill="#2A3C5D"/>

  <rect x="844" y="152" width="284" height="388" rx="28" fill="url(#flow-traffic)"/>
  <rect x="888" y="198" width="136" height="18" rx="9" fill="#18253E"/>
  <rect x="888" y="234" width="98" height="14" rx="7" fill="#7D8EA6"/>

  <rect x="888" y="286" width="196" height="64" rx="18" fill="#FFFFFF" fill-opacity="0.96"/>
  <circle cx="928" cy="318" r="16" fill="#1AD1A5"/>
  <path d="M920 318L926 324L938 310" stroke="#FFFFFF" stroke-width="6" stroke-linecap="round" stroke-linejoin="round"/>
  <text x="958" y="325" fill="#16243D" font-family="Arial, sans-serif" font-size="22" font-weight="700">Clarity + Trust</text>

  <rect x="888" y="370" width="196" height="64" rx="18" fill="#FFFFFF" fill-opacity="0.96"/>
  <circle cx="928" cy="402" r="16" fill="#76A7FF"/>
  <path d="M920 402L926 408L938 394" stroke="#FFFFFF" stroke-width="6" stroke-linecap="round" stroke-linejoin="round"/>
  <text x="958" y="409" fill="#16243D" font-family="Arial, sans-serif" font-size="22" font-weight="700">Speed + Mobile</text>

  <rect x="888" y="454" width="196" height="64" rx="18" fill="#FFFFFF" fill-opacity="0.96"/>
  <circle cx="928" cy="486" r="16" fill="#FFD23F"/>
  <path d="M920 486L926 492L938 478" stroke="#16243D" stroke-width="6" stroke-linecap="round" stroke-linejoin="round"/>
  <text x="958" y="493" fill="#16243D" font-family="Arial, sans-serif" font-size="22" font-weight="700">Qualified Leads</text>

  <path d="M728 348H808" stroke="#C8D3E4" stroke-width="10" stroke-linecap="round"/>
  <path d="M804 328L836 348L804 368" stroke="#C8D3E4" stroke-width="10" stroke-linecap="round" stroke-linejoin="round"/>

  <text x="160" y="638" fill="#F5F8FF" font-family="Arial, sans-serif" font-size="52" font-weight="700">Fix Friction First</text>
  <text x="162" y="676" fill="#D2DCE9" font-family="Arial, sans-serif" font-size="24">Tighten clarity, trust, speed, and forms before scaling traffic.</text>
</svg>
