<svg width="1280" height="720" viewBox="0 0 1280 720" fill="none" xmlns="http://www.w3.org/2000/svg">
  <defs>
    <linearGradient id="bg-message" x1="92" y1="32" x2="1184" y2="688" gradientUnits="userSpaceOnUse">
      <stop stop-color="#091726"/>
      <stop offset="0.55" stop-color="#153453"/>
      <stop offset="1" stop-color="#FFD45E"/>
    </linearGradient>
    <linearGradient id="panel-message" x1="410" y1="118" x2="918" y2="606" gradientUnits="userSpaceOnUse">
      <stop stop-color="#FFFFFF"/>
      <stop offset="1" stop-color="#EEF5FD"/>
    </linearGradient>
  </defs>
  <rect width="1280" height="720" rx="36" fill="url(#bg-message)"/>
  <circle cx="178" cy="132" r="110" fill="#66C0FF" fill-opacity="0.15"/>
  <circle cx="1098" cy="574" r="154" fill="#FFD55C" fill-opacity="0.12"/>

  <rect x="106" y="150" width="226" height="156" rx="24" fill="#FFFFFF" fill-opacity="0.94"/>
  <rect x="106" y="334" width="226" height="156" rx="24" fill="#FFFFFF" fill-opacity="0.88"/>
  <rect x="146" y="192" width="96" height="16" rx="8" fill="#172544"/>
  <rect x="146" y="224" width="138" height="14" rx="7" fill="#A6B5C8"/>
  <rect x="146" y="254" width="112" height="36" rx="14" fill="#7FD0FF"/>
  <rect x="146" y="376" width="110" height="16" rx="8" fill="#172544"/>
  <rect x="146" y="408" width="126" height="14" rx="7" fill="#A6B5C8"/>
  <rect x="146" y="438" width="126" height="36" rx="14" fill="#FFD54D"/>
  <text x="150" y="287" fill="#102038" font-family="Arial, sans-serif" font-size="21" font-weight="700">Ad Set A</text>
  <text x="150" y="471" fill="#102038" font-family="Arial, sans-serif" font-size="21" font-weight="700">Ad Set B</text>

  <path d="M332 228C382 228 396 236 430 266" stroke="#7FD0FF" stroke-width="12" stroke-linecap="round"/>
  <path d="M332 412C382 412 396 404 430 374" stroke="#FFD54D" stroke-width="12" stroke-linecap="round"/>
  <circle cx="430" cy="266" r="10" fill="#7FD0FF"/>
  <circle cx="430" cy="374" r="10" fill="#FFD54D"/>

  <rect x="432" y="110" width="424" height="484" rx="30" fill="url(#panel-message)"/>
  <rect x="432" y="110" width="424" height="74" rx="30" fill="#0F1727"/>
  <circle cx="484" cy="148" r="10" fill="#FF6B6B"/>
  <circle cx="516" cy="148" r="10" fill="#FFD55C"/>
  <circle cx="548" cy="148" r="10" fill="#51D17A"/>
  <rect x="492" y="234" width="224" height="28" rx="10" fill="#14243D"/>
  <rect x="492" y="278" width="286" height="16" rx="8" fill="#B2BFCE"/>
  <rect x="492" y="308" width="254" height="16" rx="8" fill="#D1DAE6"/>
  <rect x="492" y="350" width="156" height="54" rx="18" fill="#FFD54D"/>
  <text x="524" y="384" fill="#15233C" font-family="Arial, sans-serif" font-size="22" font-weight="700">Landing Page</text>
  <rect x="492" y="442" width="142" height="88" rx="18" fill="#FFFFFF" stroke="#E0E8F3" stroke-width="4"/>
  <rect x="656" y="442" width="142" height="88" rx="18" fill="#F5FAFF" stroke="#E0E8F3" stroke-width="4"/>
  <text x="520" y="494" fill="#15233C" font-family="Arial, sans-serif" font-size="18" font-weight="700">Offer</text>
  <text x="690" y="494" fill="#15233C" font-family="Arial, sans-serif" font-size="18" font-weight="700">Proof</text>

  <path d="M856 352C912 352 936 352 974 352" stroke="#FFFFFF" stroke-width="12" stroke-linecap="round"/>
  <path d="M952 326L986 352L952 378" stroke="#FFFFFF" stroke-width="12" stroke-linecap="round" stroke-linejoin="round"/>

  <rect x="978" y="170" width="190" height="148" rx="24" fill="#0F1727"/>
  <rect x="978" y="344" width="190" height="148" rx="24" fill="#FFFFFF" fill-opacity="0.92"/>
  <rect x="1014" y="212" width="116" height="16" rx="8" fill="#7FD0FF"/>
  <rect x="1014" y="244" width="88" height="14" rx="7" fill="#FFD54D"/>
  <path d="M1018 402L1054 438L1128 370" stroke="#17304D" stroke-width="12" stroke-linecap="round" stroke-linejoin="round"/>
  <text x="1008" y="286" fill="#F5F8FF" font-family="Arial, sans-serif" font-size="22" font-weight="700">Intent Fit</text>
  <text x="1006" y="466" fill="#15233C" font-family="Arial, sans-serif" font-size="22" font-weight="700">Qualified Lead</text>

  <text x="108" y="642" fill="#EEF6FF" font-family="Arial, sans-serif" font-size="52" font-weight="700">Message Match Matters</text>
  <text x="110" y="678" fill="#D0DCEC" font-family="Arial, sans-serif" font-size="24">Aligned ads and landing pages bring clearer intent and better leads.</text>
</svg>
